<svg version="1.1" id="Layer_1" xmlns="http://www.w3.org/2000/svg" xmlns:xlink="http://www.w3.org/1999/xlink" x="0px" y="0px"
	 width="100%" viewBox="0 0 720 720" enable-background="new 0 0 720 720" xml:space="preserve">
<path fill="#000000" opacity="1.000000" stroke="none" 
	d="
M438.000000,721.000000 
	C292.000000,721.000000 146.500000,721.000000 1.000000,721.000000 
	C1.000000,481.000000 1.000000,241.000000 1.000000,1.000000 
	C241.000000,1.000000 481.000000,1.000000 721.000000,1.000000 
	C721.000000,241.000000 721.000000,481.000000 721.000000,721.000000 
	C626.833313,721.000000 532.666687,721.000000 438.000000,721.000000 
M530.077820,87.559265 
	C520.274780,82.055519 510.602875,76.298416 500.624420,71.133591 
	C493.504822,67.448502 486.014862,64.460182 478.608887,61.354755 
	C474.660797,59.699295 470.587036,58.300167 466.486328,57.062504 
	C460.603851,55.287060 454.644470,53.766773 448.718842,52.134014 
	C441.346008,50.102478 434.073822,47.512245 426.578064,46.166359 
	C415.849121,44.239964 404.992676,42.567066 394.125977,41.976860 
	C379.623199,41.189163 365.289551,37.812592 350.560394,39.869068 
	C338.703888,41.524460 326.624207,41.561588 314.754150,43.145676 
	C303.672638,44.624535 292.734192,47.181316 281.737762,49.289711 
	C272.548584,51.051598 264.341217,55.794216 255.012283,57.536522 
	C247.773361,58.888493 240.923935,62.633602 234.072556,65.697693 
	C209.571533,76.655083 186.435608,90.011063 165.207642,106.458099 
	C157.391495,112.513901 150.698090,120.039391 142.780457,125.938812 
	C131.005280,134.712524 122.430206,146.366592 113.035324,157.249329 
	C105.929527,165.480453 99.663979,174.472824 93.429665,183.409058 
	C88.424789,190.583023 83.968781,198.144852 79.387314,205.607071 
	C77.252357,209.084442 75.096680,212.602600 73.472046,216.329651 
	C68.794273,227.060867 64.125328,237.809692 59.946819,248.740417 
	C56.597233,257.502686 53.679558,266.458557 51.116737,275.483704 
	C49.197411,282.242798 48.178444,289.255402 46.703156,296.143280 
	C44.846989,304.809387 42.195156,313.381409 41.223248,322.142303 
	C39.844349,334.571869 38.854256,347.160553 39.212635,359.637726 
	C39.668041,375.493225 42.201427,391.283875 42.802044,407.141785 
	C43.431595,423.763428 48.113525,439.394012 53.008152,454.945557 
	C57.344398,468.723053 62.644348,482.229401 68.147636,495.596588 
	C72.140617,505.295288 76.383812,515.052979 81.891220,523.930847 
	C91.925690,540.106262 102.329597,556.106689 114.965973,570.486389 
	C127.437706,584.678711 140.843658,597.781006 155.421448,609.915466 
	C167.657791,620.100952 180.348755,629.538086 193.882172,637.662781 
	C206.356934,645.152039 219.950272,650.750916 232.807404,657.637146 
	C248.889725,666.250671 266.262787,671.072571 283.835297,674.934692 
	C295.204407,677.433350 306.266907,682.290405 318.338287,681.051086 
	C319.130127,680.969788 319.962494,681.334656 320.781311,681.456299 
	C328.759521,682.640991 336.725159,684.697815 344.720581,684.822205 
	C363.996216,685.122314 383.256134,685.662903 402.422516,681.371704 
	C410.280365,679.612366 418.509705,680.078735 426.636841,677.482361 
	C435.693726,674.589050 445.477448,674.608887 454.823639,671.180786 
	C471.594025,665.029480 488.807129,660.175537 504.497131,651.295471 
	C512.006287,647.045593 519.969055,643.584229 527.394897,639.203735 
	C534.871033,634.793640 542.042847,629.838440 549.149048,624.839172 
	C555.390259,620.448486 561.790466,616.133484 567.353516,610.960327 
	C579.307434,599.844238 591.105103,588.516235 602.314575,576.658386 
	C610.236633,568.278076 617.673645,559.293579 624.261536,549.836426 
	C631.680420,539.186401 637.849365,527.670105 644.660339,516.591003 
	C652.568909,503.726654 658.292969,489.871277 663.221008,475.677399 
	C666.132507,467.291656 668.629639,458.760254 671.231812,450.269440 
	C673.775513,441.969238 676.311768,433.664001 678.632568,425.300293 
	C679.195374,423.272003 678.843811,421.000977 679.013062,418.849457 
	C679.181335,416.709900 679.429993,414.573975 679.723267,412.447449 
	C680.796692,404.665161 682.020081,396.901367 682.953430,389.102692 
	C683.503967,384.502502 683.592224,379.848053 683.930481,375.221069 
	C684.232422,371.091553 685.007019,366.949615 684.842407,362.842438 
	C684.464172,353.407471 683.719360,343.984009 682.965393,334.568542 
	C682.583984,329.804810 681.926880,325.059235 681.271851,320.322388 
	C680.593018,315.413391 679.872253,310.505432 678.978638,305.632050 
	C677.637878,298.320099 676.642212,290.889740 674.572083,283.779846 
	C671.589417,273.535950 667.226257,263.682404 664.447144,253.393585 
	C660.575134,239.058578 654.135742,225.883926 647.382385,212.864655 
	C642.311035,203.088104 636.617676,193.576965 630.502075,184.414337 
	C623.399231,173.772812 615.886658,163.356827 607.877563,153.384506 
	C602.235657,146.359634 595.696289,139.998734 589.145386,133.775360 
	C581.406067,126.423058 573.360046,119.374519 565.182678,112.509109 
	C559.887939,108.063828 554.200745,104.067566 548.541443,100.080025 
	C542.664856,95.939384 536.609985,92.051636 530.077820,87.559265 
z"/>
<path fill="#0A0A09" opacity="1.000000" stroke="none" 
	d="
M530.355469,87.806282 
	C536.609985,92.051636 542.664856,95.939384 548.541443,100.080025 
	C554.200745,104.067566 559.887939,108.063828 565.182678,112.509109 
	C573.360046,119.374519 581.406067,126.423058 589.145386,133.775360 
	C595.696289,139.998734 602.235657,146.359634 607.877563,153.384506 
	C615.886658,163.356827 623.399231,173.772812 630.502075,184.414337 
	C636.617676,193.576965 642.311035,203.088104 647.382385,212.864655 
	C654.135742,225.883926 660.575134,239.058578 664.447144,253.393585 
	C667.226257,263.682404 671.589417,273.535950 674.572083,283.779846 
	C676.642212,290.889740 677.637878,298.320099 678.978638,305.632050 
	C679.872253,310.505432 680.593018,315.413391 681.271851,320.322388 
	C681.926880,325.059235 682.583984,329.804810 682.965393,334.568542 
	C683.719360,343.984009 684.464172,353.407471 684.842407,362.842438 
	C685.007019,366.949615 684.232422,371.091553 683.930481,375.221069 
	C683.592224,379.848053 683.503967,384.502502 682.953430,389.102692 
	C682.020081,396.901367 680.796692,404.665161 679.723267,412.447449 
	C679.429993,414.573975 679.181335,416.709900 679.013062,418.849457 
	C678.843811,421.000977 679.195374,423.272003 678.632568,425.300293 
	C676.311768,433.664001 673.775513,441.969238 671.231812,450.269440 
	C668.629639,458.760254 666.132507,467.291656 663.221008,475.677399 
	C658.292969,489.871277 652.568909,503.726654 644.660339,516.591003 
	C637.849365,527.670105 631.680420,539.186401 624.261536,549.836426 
	C617.673645,559.293579 610.236633,568.278076 602.314575,576.658386 
	C591.105103,588.516235 579.307434,599.844238 567.353516,610.960327 
	C561.790466,616.133484 555.390259,620.448486 549.149048,624.839172 
	C542.042847,629.838440 534.871033,634.793640 527.394897,639.203735 
	C519.969055,643.584229 512.006287,647.045593 504.497131,651.295471 
	C488.807129,660.175537 471.594025,665.029480 454.823639,671.180786 
	C445.477448,674.608887 435.693726,674.589050 426.636841,677.482361 
	C418.509705,680.078735 410.280365,679.612366 402.422516,681.371704 
	C383.256134,685.662903 363.996216,685.122314 344.720581,684.822205 
	C336.725159,684.697815 328.759521,682.640991 320.781311,681.456299 
	C319.962494,681.334656 319.130127,680.969788 318.338287,681.051086 
	C306.266907,682.290405 295.204407,677.433350 283.835297,674.934692 
	C266.262787,671.072571 248.889725,666.250671 232.807404,657.637146 
	C219.950272,650.750916 206.356934,645.152039 193.882172,637.662781 
	C180.348755,629.538086 167.657791,620.100952 155.421448,609.915466 
	C140.843658,597.781006 127.437706,584.678711 114.965973,570.486389 
	C102.329597,556.106689 91.925690,540.106262 81.891220,523.930847 
	C76.383812,515.052979 72.140617,505.295288 68.147636,495.596588 
	C62.644348,482.229401 57.344398,468.723053 53.008152,454.945557 
	C48.113525,439.394012 43.431595,423.763428 42.802044,407.141785 
	C42.201427,391.283875 39.668041,375.493225 39.212635,359.637726 
	C38.854256,347.160553 39.844349,334.571869 41.223248,322.142303 
	C42.195156,313.381409 44.846989,304.809387 46.703156,296.143280 
	C48.178444,289.255402 49.197411,282.242798 51.116737,275.483704 
	C53.679558,266.458557 56.597233,257.502686 59.946819,248.740417 
	C64.125328,237.809692 68.794273,227.060867 73.472046,216.329651 
	C75.096680,212.602600 77.252357,209.084442 79.387314,205.607071 
	C83.968781,198.144852 88.424789,190.583023 93.429665,183.409058 
	C99.663979,174.472824 105.929527,165.480453 113.035324,157.249329 
	C122.430206,146.366592 131.005280,134.712524 142.780457,125.938812 
	C150.698090,120.039391 157.391495,112.513901 165.207642,106.458099 
	C186.435608,90.011063 209.571533,76.655083 234.072556,65.697693 
	C240.923935,62.633602 247.773361,58.888493 255.012283,57.536522 
	C264.341217,55.794216 272.548584,51.051598 281.737762,49.289711 
	C292.734192,47.181316 303.672638,44.624535 314.754150,43.145676 
	C326.624207,41.561588 338.703888,41.524460 350.560394,39.869068 
	C365.289551,37.812592 379.623199,41.189163 394.125977,41.976860 
	C404.992676,42.567066 415.849121,44.239964 426.578064,46.166359 
	C434.073822,47.512245 441.346008,50.102478 448.718842,52.134014 
	C454.644470,53.766773 460.603851,55.287060 466.486328,57.062504 
	C470.587036,58.300167 474.660797,59.699295 478.608887,61.354755 
	C486.014862,64.460182 493.504822,67.448502 500.624420,71.133591 
	C510.602875,76.298416 520.274780,82.055519 530.355469,87.806282 
M496.417816,294.279694 
	C479.887909,308.666504 463.373993,323.071716 446.822357,337.433472 
	C436.301605,346.562286 425.724762,355.626526 414.814270,364.048920 
	C407.660858,354.676636 400.667328,345.176971 393.320770,335.958588 
	C377.995331,316.728271 362.429810,297.689209 347.116394,278.449402 
	C345.222748,276.070190 343.322418,275.308105 340.412933,275.310272 
	C276.436371,275.357574 212.459747,275.310089 148.483139,275.313324 
	C145.550934,275.313477 142.618744,275.618225 138.940628,275.822540 
	C140.333252,277.692017 141.128677,278.920593 142.081085,280.012207 
	C148.301834,287.142242 154.698685,294.124847 160.733749,301.407715 
	C163.330032,304.540833 166.213699,305.649261 170.174301,305.631958 
	C191.498245,305.538971 212.823074,305.646179 234.147598,305.680511 
	C239.068344,305.688446 243.989136,305.681702 249.569382,305.681702 
	C249.569382,385.335754 249.569382,464.338745 249.569382,544.520508 
	C251.543793,543.007080 252.617249,542.350708 253.489624,541.490417 
	C265.323029,529.821167 277.023407,518.014160 289.005463,506.500122 
	C292.573639,503.071289 293.770386,499.376678 293.740509,494.569031 
	C293.534515,461.417847 293.508850,428.265472 293.474335,395.113403 
	C293.445007,366.956848 293.535217,338.799988 293.424011,310.643860 
	C293.409424,306.953674 294.093903,305.208344 298.327820,305.400879 
	C305.308838,305.718323 312.336273,305.109192 319.306213,305.525421 
	C321.745911,305.671082 324.770996,307.100647 326.333984,308.952393 
	C333.724060,317.707794 340.688538,326.821869 347.826691,335.790619 
	C366.025299,358.656250 384.249084,381.501892 402.430176,404.381439 
	C406.215271,409.144714 409.859680,414.019806 413.919281,419.299011 
	C422.112793,410.704926 429.872681,402.565643 438.300507,394.364014 
	C441.535980,391.500488 444.792786,388.660645 448.003357,385.769470 
	C465.047241,370.420990 482.113342,355.096954 499.102722,339.688324 
	C508.814880,330.879791 518.395508,321.926270 528.674133,312.832062 
	C534.334656,307.936279 539.995178,303.040497 545.655701,298.144684 
	C546.171753,298.441681 546.687866,298.738678 547.203918,299.035675 
	C547.203918,301.963074 547.200989,304.890503 547.204346,307.817902 
	C547.253662,350.921814 547.296326,394.025757 547.377686,437.129639 
	C547.381409,439.105164 547.059753,441.537262 548.037109,442.978607 
	C553.130188,450.489380 558.594971,457.748077 564.180603,465.484833 
	C564.180603,465.484833 564.500916,465.820068 564.398987,466.490601 
	C570.256714,475.039520 576.114502,483.588409 581.972229,492.137329 
	C582.540649,491.973480 583.109131,491.809631 583.677551,491.645782 
	C583.539368,489.356537 583.401184,487.067291 583.354797,484.195862 
	C583.322266,483.805573 583.289673,483.415283 583.618286,482.702820 
	C583.492004,482.124542 583.365784,481.546234 583.329346,480.168030 
	C583.305969,477.178009 583.282593,474.187988 583.629456,470.460602 
	C583.509827,468.626648 583.390198,466.792694 583.362061,464.047089 
	C583.312256,460.374451 583.262390,456.701782 583.611206,452.311981 
	C583.653015,451.982178 583.731445,451.652344 583.731384,451.322540 
	C583.714417,375.629303 583.694153,299.936066 583.653870,224.242844 
	C583.653076,222.666397 583.418152,221.090073 583.292480,219.513702 
	C582.792297,219.173920 582.292175,218.834152 581.792053,218.494370 
	C573.543152,226.011871 565.294312,233.529358 556.400574,241.237915 
	C543.442871,252.602173 530.442871,263.918793 517.544373,275.349915 
	C510.624176,281.482819 503.878357,287.812500 496.417816,294.279694 
M256.499664,250.215881 
	C276.149719,250.199722 295.801147,250.298599 315.448608,250.065414 
	C319.154053,250.021454 323.083893,249.226562 326.495941,247.792496 
	C336.918915,243.411774 347.135681,238.541153 357.440857,233.879211 
	C364.308167,230.772537 371.189453,227.696793 378.064484,224.607208 
	C377.981873,224.308914 377.899261,224.010635 377.816650,223.712341 
	C284.045471,223.712341 190.274292,223.712341 94.923752,223.712341 
	C101.828247,231.739487 107.943413,238.648102 113.812157,245.760086 
	C116.579918,249.114166 119.690460,250.368866 124.111031,250.351135 
	C167.906723,250.175461 211.703323,250.227051 256.499664,250.215881 
M360.925934,456.420349 
	C370.430450,447.845703 379.903931,439.236237 389.461182,430.720825 
	C391.869995,428.574524 392.242950,426.999847 390.008698,424.143158 
	C376.388641,406.729004 363.039581,389.103180 349.558655,371.579834 
	C346.727783,367.900024 343.723938,364.353241 340.002258,359.761078 
	C340.002258,398.607574 340.002258,435.930939 340.002258,474.708344 
	C347.474548,468.183319 353.936890,462.540192 360.925934,456.420349 
z"/>
<path fill="#EAEAE9" opacity="1.000000" stroke="none" 
	d="
M437.632629,394.426361 
	C429.872681,402.565643 422.112793,410.704926 413.919281,419.299011 
	C409.859680,414.019806 406.215271,409.144714 402.430176,404.381439 
	C384.249084,381.501892 366.025299,358.656250 347.826691,335.790619 
	C340.688538,326.821869 333.724060,317.707794 326.333984,308.952393 
	C324.770996,307.100647 321.745911,305.671082 319.306213,305.525421 
	C312.336273,305.109192 305.308838,305.718323 298.327820,305.400879 
	C294.093903,305.208344 293.409424,306.953674 293.424011,310.643860 
	C293.535217,338.799988 293.445007,366.956848 293.474335,395.113403 
	C293.508850,428.265472 293.534515,461.417847 293.740509,494.569031 
	C293.770386,499.376678 292.573639,503.071289 289.005463,506.500122 
	C277.023407,518.014160 265.323029,529.821167 253.489624,541.490417 
	C252.617249,542.350708 251.543793,543.007080 249.569382,544.520508 
	C249.569382,464.338745 249.569382,385.335754 249.569382,305.681702 
	C243.989136,305.681702 239.068344,305.688446 234.147598,305.680511 
	C212.823074,305.646179 191.498245,305.538971 170.174301,305.631958 
	C166.213699,305.649261 163.330032,304.540833 160.733749,301.407715 
	C154.698685,294.124847 148.301834,287.142242 142.081085,280.012207 
	C141.128677,278.920593 140.333252,277.692017 138.940628,275.822540 
	C142.618744,275.618225 145.550934,275.313477 148.483139,275.313324 
	C212.459747,275.310089 276.436371,275.357574 340.412933,275.310272 
	C343.322418,275.308105 345.222748,276.070190 347.116394,278.449402 
	C362.429810,297.689209 377.995331,316.728271 393.320770,335.958588 
	C400.667328,345.176971 407.660858,354.676636 415.081909,364.614197 
	C416.461609,366.303436 417.573730,367.427368 418.891541,368.957642 
	C419.569641,369.712830 420.042023,370.061737 420.482208,370.661560 
	C421.447449,371.814636 422.444824,372.716705 423.600769,374.058075 
	C424.360596,375.206146 424.961884,375.914886 425.562012,376.882507 
	C427.163666,378.956818 428.766479,380.772247 430.457367,383.009827 
	C431.359467,384.187134 432.173492,384.942230 433.015137,385.971069 
	C434.133759,387.706726 435.224792,389.168640 436.444946,390.904510 
	C436.746368,391.283691 436.918732,391.388916 437.108459,391.868652 
	C437.294800,392.970917 437.463715,393.698639 437.632629,394.426361 
z"/>
<path fill="#BCEB0C" opacity="1.000000" stroke="none" 
	d="
M255.999664,250.215103 
	C211.703323,250.227051 167.906723,250.175461 124.111031,250.351135 
	C119.690460,250.368866 116.579918,249.114166 113.812157,245.760086 
	C107.943413,238.648102 101.828247,231.739487 94.923752,223.712341 
	C190.274292,223.712341 284.045471,223.712341 377.816650,223.712341 
	C377.899261,224.010635 377.981873,224.308914 378.064484,224.607208 
	C371.189453,227.696793 364.308167,230.772537 357.440857,233.879211 
	C347.135681,238.541153 336.918915,243.411774 326.495941,247.792496 
	C323.083893,249.226562 319.154053,250.021454 315.448608,250.065414 
	C295.801147,250.298599 276.149719,250.199722 255.999664,250.215103 
z"/>
<path fill="#C0EC11" opacity="1.000000" stroke="none" 
	d="
M360.662598,456.658691 
	C353.936890,462.540192 347.474548,468.183319 340.002258,474.708344 
	C340.002258,435.930939 340.002258,398.607574 340.002258,359.761078 
	C343.723938,364.353241 346.727783,367.900024 349.558655,371.579834 
	C363.039581,389.103180 376.388641,406.729004 390.008698,424.143158 
	C392.242950,426.999847 391.869995,428.574524 389.461182,430.720825 
	C379.903931,439.236237 370.430450,447.845703 360.662598,456.658691 
z"/>
<path fill="#85A416" opacity="1.000000" stroke="none" 
	d="
M557.045410,241.046860 
	C565.294312,233.529358 573.543152,226.011871 581.792053,218.494370 
	C582.292175,218.834152 582.792297,219.173920 583.292480,219.513702 
	C583.418152,221.090073 583.653076,222.666397 583.653870,224.242844 
	C583.694153,299.936066 583.714417,375.629303 583.731384,451.322540 
	C583.731445,451.652344 583.653015,451.982178 583.152100,452.665649 
	C582.522827,452.987030 582.352661,452.954803 582.175781,452.503113 
	C582.138062,450.393768 582.106995,448.703857 582.095337,446.544098 
	C582.097412,439.045013 582.080139,432.015778 582.085571,424.519257 
	C582.090637,417.038055 582.072876,410.024200 582.078247,402.540955 
	C582.101685,393.041931 582.101990,384.012299 582.126282,374.586487 
	C582.135315,373.132446 582.120361,372.074554 582.125244,370.546509 
	C582.117432,348.380219 582.089783,326.684052 582.087280,304.520508 
	C582.116516,294.377197 582.120605,284.701324 582.140503,274.554352 
	C582.128479,267.717621 582.100586,261.351959 582.097534,254.519104 
	C582.103210,247.372009 582.084045,240.692123 582.085327,233.552765 
	C582.105652,229.527313 582.105652,225.961334 582.105652,222.395340 
	C581.391602,222.109955 580.677551,221.824554 579.963501,221.539169 
	C577.856628,223.981720 575.749817,226.424271 573.388184,228.895294 
	C572.732117,229.220871 572.330933,229.517990 571.676636,230.015045 
	C571.120239,230.783417 570.816772,231.351852 570.269653,232.017731 
	C569.305908,232.601166 568.585754,233.087158 567.563660,233.705032 
	C566.491028,234.572617 565.720459,235.308319 564.898560,236.161316 
	C564.847229,236.278625 564.909180,236.527069 564.606079,236.642120 
	C563.799927,237.144699 563.296814,237.532227 562.507080,238.066711 
	C560.650696,239.311630 559.080811,240.409622 557.394653,241.392273 
	C557.278442,241.276932 557.045410,241.046860 557.045410,241.046860 
z"/>
<path fill="#85A416" opacity="1.000000" stroke="none" 
	d="
M563.930359,465.094513 
	C558.594971,457.748077 553.130188,450.489380 548.037109,442.978607 
	C547.059753,441.537262 547.381409,439.105164 547.377686,437.129639 
	C547.296326,394.025757 547.253662,350.921814 547.204346,307.817902 
	C547.200989,304.890503 547.203918,301.963074 547.203918,299.035675 
	C546.687866,298.738678 546.171753,298.441681 545.655701,298.144684 
	C539.995178,303.040497 534.334656,307.936279 528.231934,312.807861 
	C527.789673,312.783630 527.543579,312.529480 527.720032,312.253784 
	C531.059753,308.459106 534.223083,304.940155 537.660156,301.393250 
	C538.281616,301.249725 538.629211,301.134155 539.266663,300.898438 
	C540.384155,299.879730 541.211853,298.981171 542.018860,298.061584 
	C541.998169,298.040588 542.053406,298.058868 542.349976,298.060181 
	C543.104065,297.712433 543.561462,297.363373 544.009888,297.006500 
	C544.000916,296.998688 544.008362,297.019806 544.232788,296.914246 
	C544.738098,296.606750 544.921570,296.338226 545.003784,296.001556 
	C545.000000,296.000000 545.006226,296.008911 545.342651,295.937988 
	C546.109314,295.708496 546.539673,295.549957 547.235352,295.546753 
	C547.960815,296.105255 548.420898,296.508453 548.864807,297.366119 
	C548.887878,300.207245 548.927124,302.593842 548.939331,305.449768 
	C548.928284,349.740540 548.931274,393.562042 549.003784,437.383423 
	C549.006958,439.292969 549.648438,441.201508 550.141968,443.398010 
	C551.250793,445.142853 552.210388,446.600189 553.242798,448.262695 
	C553.478882,448.729523 553.710693,448.895691 554.216980,449.201965 
	C555.551758,450.605591 556.680664,451.773621 557.810303,453.260437 
	C558.123657,454.117584 558.436218,454.655884 558.814087,455.468262 
	C559.223083,456.170593 559.566772,456.598877 560.036499,457.264038 
	C560.421692,457.745819 560.680847,457.990692 560.962158,458.438751 
	C560.984314,458.641968 561.111633,459.030426 561.193054,459.258728 
	C561.430664,459.785461 561.659485,460.009979 562.048523,460.348938 
	C562.297791,460.772827 562.510437,460.945465 562.908936,461.288025 
	C563.343506,461.693085 563.643188,461.865356 563.921204,462.060425 
	C563.899475,462.083252 563.885986,462.144714 563.860352,462.514069 
	C563.866577,463.620453 563.898438,464.357483 563.930359,465.094513 
z"/>
<path fill="#C3ED13" opacity="1.000000" stroke="none" 
	d="
M564.055481,465.289673 
	C563.898438,464.357483 563.866577,463.620453 564.213379,462.606415 
	C566.916504,461.656128 569.241028,460.982849 571.565552,460.309570 
	C570.255615,459.428345 568.945740,458.547119 567.647705,457.673889 
	C570.317627,454.164398 573.248596,452.756195 575.959961,456.232483 
	C578.361450,454.955017 580.271912,453.938782 582.182434,452.922546 
	C582.352661,452.954803 582.522827,452.987030 582.952759,453.024231 
	C583.262390,456.701782 583.312256,460.374451 583.044373,464.734314 
	C582.904175,467.347046 583.081726,469.272491 583.259155,471.197968 
	C583.282593,474.187988 583.305969,477.178009 583.050720,480.710388 
	C582.933777,481.843475 583.095459,482.434235 583.257080,483.024994 
	C583.289673,483.415283 583.322266,483.805573 583.126099,484.814575 
	C581.834167,485.577057 580.213684,486.226257 579.805420,485.776031 
	C578.147339,483.947876 576.938599,481.722870 575.422974,479.752777 
	C571.825012,475.075653 568.146729,470.460358 564.500916,465.820068 
	C564.500916,465.820068 564.180603,465.484833 564.055481,465.289673 
z"/>
<path fill="#85A416" opacity="1.000000" stroke="none" 
	d="
M437.966553,394.395203 
	C437.463715,393.698639 437.294800,392.970917 437.473358,391.801178 
	C441.174561,388.777405 444.669830,386.357635 447.851318,383.578674 
	C453.660400,378.504578 459.283722,373.217773 465.263489,367.877136 
	C466.409576,366.845734 467.276703,365.956940 468.419495,364.907715 
	C470.131714,363.479919 471.568237,362.212494 473.224487,360.854492 
	C473.736877,360.599274 473.928345,360.355164 474.018066,360.018066 
	C474.017548,360.004425 474.041962,360.017914 474.327942,359.865540 
	C475.429108,358.503754 476.244293,357.294342 477.053040,356.073059 
	C477.046631,356.061157 477.056152,356.035858 477.338989,355.976379 
	C477.895599,355.646545 478.169373,355.376190 478.755341,355.054504 
	C480.736023,353.418030 482.404510,351.832855 484.295197,350.099762 
	C484.691193,349.651520 484.864990,349.351227 485.022278,349.027710 
	C485.005707,349.004486 485.051331,349.039001 485.309235,348.956665 
	C485.808167,348.606720 486.049194,348.339050 486.517731,347.957214 
	C487.161438,347.550385 487.577637,347.257690 488.208069,346.867554 
	C488.679138,346.570831 488.854340,346.315552 488.975220,346.003540 
	C489.002441,346.002716 489.004089,345.948242 489.221802,345.847046 
	C489.716125,345.563995 489.918884,345.320557 490.328430,344.880890 
	C491.758026,343.566772 492.906891,342.387268 494.285095,341.053772 
	C494.744934,340.614563 494.975464,340.329315 495.407593,340.028717 
	C495.609192,340.013367 495.996338,339.896576 496.293121,339.768616 
	C498.404114,337.787781 500.218292,335.934906 502.047913,334.072021 
	C502.063324,334.061981 502.082977,334.030884 502.391479,333.914978 
	C504.805725,331.881592 506.911469,329.964111 509.018616,328.033661 
	C509.020020,328.020691 509.045959,328.017731 509.328918,327.875946 
	C510.759277,326.511505 511.906708,325.288849 513.052124,324.051849 
	C513.050171,324.037506 513.037415,324.052307 513.286743,323.953613 
	C513.774536,323.589905 514.013000,323.324921 514.521667,322.895935 
	C516.194885,321.486206 517.597900,320.240509 519.221436,318.886414 
	C519.723022,318.590149 519.929810,318.340668 520.268188,317.926697 
	C520.730774,317.639313 520.918396,317.400543 521.279724,316.985443 
	C521.774109,316.603668 522.025635,316.343872 522.508423,315.963470 
	C523.200806,315.331116 523.661926,314.819427 524.400879,314.137390 
	C525.633606,313.487885 526.588623,313.008667 527.543579,312.529480 
	C527.543579,312.529480 527.789673,312.783630 527.912537,312.910828 
	C518.395508,321.926270 508.814880,330.879791 499.102722,339.688324 
	C482.113342,355.096954 465.047241,370.420990 448.003357,385.769470 
	C444.792786,388.660645 441.535980,391.500488 437.966553,394.395203 
z"/>
<path fill="#85A416" opacity="1.000000" stroke="none" 
	d="
M418.685822,368.551331 
	C417.573730,367.427368 416.461609,366.303436 415.261292,364.949585 
	C425.724762,355.626526 436.301605,346.562286 446.822357,337.433472 
	C463.373993,323.071716 479.887909,308.666504 496.850098,294.284241 
	C497.282349,294.288757 497.511566,294.523468 497.330048,294.795227 
	C491.326233,300.511047 485.647339,306.118835 479.655304,311.369202 
	C460.184387,328.429932 440.553986,345.308960 421.146881,362.441376 
	C419.675385,363.740387 419.476349,366.480896 418.685822,368.551331 
z"/>
<path fill="#85A416" opacity="1.000000" stroke="none" 
	d="
M497.168091,294.171082 
	C503.878357,287.812500 510.624176,281.482819 517.544373,275.349915 
	C530.442871,263.918793 543.442871,252.602173 556.723022,241.142395 
	C557.045410,241.046860 557.278442,241.276932 557.277466,241.622375 
	C557.181213,242.299774 557.085876,242.631729 556.716675,243.083710 
	C555.913391,243.787216 555.383972,244.370682 554.564087,245.109833 
	C540.997681,257.070312 527.778320,268.939545 514.418640,280.648743 
	C508.938873,285.451569 503.156372,289.908966 497.511566,294.523468 
	C497.511566,294.523468 497.282349,294.288757 497.168091,294.171082 
z"/>
<path fill="#85A416" opacity="1.000000" stroke="none" 
	d="
M564.449951,466.155334 
	C568.146729,470.460358 571.825012,475.075653 575.422974,479.752777 
	C576.938599,481.722870 578.147339,483.947876 579.805420,485.776031 
	C580.213684,486.226257 581.834167,485.577057 583.080200,485.105652 
	C583.401184,487.067291 583.539368,489.356537 583.677551,491.645782 
	C583.109131,491.809631 582.540649,491.973480 581.972229,492.137329 
	C576.114502,483.588409 570.256714,475.039520 564.449951,466.155334 
z"/>
<path fill="#85A416" opacity="1.000000" stroke="none" 
	d="
M583.444336,470.829285 
	C583.081726,469.272491 582.904175,467.347046 582.998596,465.190155 
	C583.390198,466.792694 583.509827,468.626648 583.444336,470.829285 
z"/>
<path fill="#85A416" opacity="1.000000" stroke="none" 
	d="
M583.437744,482.863892 
	C583.095459,482.434235 582.933777,481.843475 583.005798,481.110352 
	C583.365784,481.546234 583.492004,482.124542 583.437744,482.863892 
z"/>
<path fill="#BEEC0D" opacity="1.000000" stroke="none" 
	d="
M556.990540,242.963684 
	C557.085876,242.631729 557.181213,242.299774 557.393677,241.737732 
	C559.080811,240.409622 560.650696,239.311630 562.858276,238.051056 
	C563.966980,237.434662 564.438049,236.980850 564.909180,236.527054 
	C564.909180,236.527069 564.847229,236.278625 565.273621,236.134476 
	C566.421875,235.184601 567.143799,234.378891 567.865662,233.573151 
	C568.585754,233.087158 569.305908,232.601166 570.600342,231.889877 
	C571.426331,231.048096 571.678040,230.431580 571.929688,229.815094 
	C572.330933,229.517990 572.732117,229.220871 573.789795,228.938629 
	C576.985840,230.639740 579.525391,232.325989 582.064941,234.012222 
	C582.084045,240.692123 582.103210,247.372009 581.737427,254.593796 
	C576.582031,259.877716 577.031799,271.461914 582.124756,275.025421 
	C582.120605,284.701324 582.116516,294.377197 581.710938,304.607086 
	C580.540161,307.039001 579.236511,308.876190 579.089722,310.801605 
	C578.233154,322.033569 578.256348,333.369965 576.725952,344.498260 
	C575.903748,350.476868 576.210571,357.076965 571.681458,362.380280 
	C570.052917,364.287140 570.032654,367.444946 574.117493,368.276337 
	C576.852783,368.833069 579.447693,370.079071 582.105408,371.016663 
	C582.120361,372.074554 582.135315,373.132446 581.737671,374.651581 
	C580.628845,375.740265 579.488464,376.262665 579.310974,377.012878 
	C578.412048,380.812408 576.743408,384.819794 577.275879,388.472839 
	C577.999207,393.435974 576.369019,399.567047 582.055115,403.010315 
	C582.072876,410.024200 582.090637,417.038055 581.709473,424.606079 
	C576.895996,429.680908 579.302490,435.177094 579.419617,440.235077 
	C579.472351,442.513977 581.140686,444.755493 582.075989,447.013977 
	C582.106995,448.703857 582.138062,450.393768 582.175781,452.503082 
	C580.271912,453.938782 578.361450,454.955017 575.959961,456.232483 
	C573.248596,452.756195 570.317627,454.164398 567.647705,457.673889 
	C568.945740,458.547119 570.255615,459.428345 571.565552,460.309570 
	C569.241028,460.982849 566.916504,461.656128 564.239014,462.237061 
	C563.885986,462.144714 563.899475,462.083252 563.789124,461.831421 
	C563.377258,461.404755 563.075684,461.229980 562.774170,461.055206 
	C562.510437,460.945465 562.297791,460.772827 561.965759,460.118530 
	C561.634094,459.408508 561.406189,459.185394 561.111633,459.030426 
	C561.111633,459.030426 560.984314,458.641968 560.868042,458.176727 
	C560.471313,457.483368 560.190857,457.255249 559.910461,457.027161 
	C559.566772,456.598877 559.223083,456.170593 559.055420,455.270020 
	C558.757446,454.179016 558.283508,453.560333 557.809570,452.941650 
	C556.680664,451.773621 555.551758,450.605591 554.112732,449.018585 
	C553.637756,448.365173 553.426880,448.184479 553.169922,448.057556 
	C552.210388,446.600189 551.250793,445.142853 550.147400,442.917664 
	C549.999939,396.436676 549.996277,350.723541 549.995117,304.578552 
	C549.625366,301.735016 549.253174,299.323334 548.880981,296.911621 
	C548.420898,296.508453 547.960815,296.105255 547.221802,295.275940 
	C546.597046,294.421356 546.251343,293.992920 545.905518,293.564484 
	C545.605774,294.379272 545.305969,295.194092 545.006226,296.008911 
	C545.006226,296.008911 545.000000,296.000000 544.792236,296.122589 
	C544.320862,296.450134 544.128784,296.708344 544.008362,297.019806 
	C544.008362,297.019806 544.000916,296.998688 543.714966,297.033630 
	C542.970520,297.398682 542.511963,297.728760 542.053406,298.058868 
	C542.053406,298.058868 541.998169,298.040588 541.650940,298.050659 
	C540.528137,299.046692 539.752502,300.032623 538.976868,301.018555 
	C538.629211,301.134155 538.281616,301.249725 537.503052,301.027954 
	C533.693665,298.404572 531.202637,299.922150 530.001221,304.998779 
	C530.000000,305.000000 529.995728,305.002441 529.665771,304.854126 
	C524.472717,302.717865 523.089600,306.551331 521.325745,308.903473 
	C522.424744,311.026611 523.273865,312.667175 524.123047,314.307739 
	C523.661926,314.819427 523.200806,315.331116 522.237671,316.049011 
	C521.502686,316.539276 521.269775,316.823364 521.036865,317.107422 
	C520.918396,317.400543 520.730774,317.639313 520.045898,318.032806 
	C519.341492,318.434906 519.135864,318.685913 519.000977,318.994812 
	C517.597900,320.240509 516.194885,321.486206 514.261902,322.985657 
	C513.500427,323.510345 513.268921,323.781311 513.037415,324.052307 
	C513.037415,324.052307 513.050171,324.037506 512.674316,324.040985 
	C511.214264,325.368896 510.130096,326.693298 509.045959,328.017731 
	C509.045959,328.017731 509.020020,328.020691 508.659729,328.005219 
	C507.849457,326.847992 507.376984,325.714478 506.955963,324.562164 
	C506.542053,323.429199 506.180359,322.277191 505.423492,320.026672 
	C502.738159,325.606598 498.917297,329.117737 502.082977,334.030884 
	C502.082977,334.030884 502.063324,334.061981 501.667297,334.048523 
	C497.357086,334.048767 496.366608,336.693604 495.996338,339.896576 
	C495.996338,339.896576 495.609192,340.013367 495.143921,340.143463 
	C494.470978,340.584961 494.263367,340.896362 494.055756,341.207764 
	C492.906891,342.387268 491.758026,343.566772 490.113464,344.986816 
	C489.349152,345.413116 489.144562,345.653412 489.004089,345.948242 
	C489.004089,345.948242 489.002441,346.002716 488.779175,346.123169 
	C488.311462,346.439636 488.124115,346.680084 487.993835,346.965027 
	C487.577637,347.257690 487.161438,347.550385 486.253296,348.038971 
	C485.524658,348.502899 485.287994,348.770935 485.051331,349.039001 
	C485.051331,349.039001 485.005707,349.004486 484.792358,349.163208 
	C484.410309,349.630554 484.241638,349.939117 484.072998,350.247711 
	C482.404510,351.832855 480.736023,353.418030 478.467712,355.121735 
	C477.597321,355.505493 477.326752,355.770660 477.056152,356.035858 
	C477.056152,356.035858 477.046631,356.061157 476.695404,356.097534 
	C475.576782,357.428558 474.809357,358.723236 474.041931,360.017914 
	C474.041962,360.017914 474.017548,360.004425 473.808716,360.121216 
	C473.338226,360.420410 473.139832,360.656097 473.004761,360.945068 
	C471.568237,362.212494 470.131714,363.479919 468.039551,364.896057 
	C466.584106,366.036407 465.784332,367.028076 464.984558,368.019714 
	C459.283722,373.217773 453.660400,378.504578 447.851318,383.578674 
	C444.669830,386.357635 441.174561,388.777405 437.455933,391.426636 
	C436.918732,391.388916 436.746368,391.283691 436.505005,390.642151 
	C435.286499,388.636383 434.136993,387.166870 432.987518,385.697357 
	C432.173492,384.942230 431.359467,384.187134 430.498535,382.745178 
	C428.822174,380.246796 427.192688,378.435211 425.563171,376.623627 
	C424.961884,375.914886 424.360596,375.206146 423.628784,373.808258 
	C422.503632,372.216309 421.509003,371.313477 420.514374,370.410614 
	C420.042023,370.061737 419.569641,369.712830 418.891541,368.957642 
	C419.476349,366.480896 419.675385,363.740387 421.146881,362.441376 
	C440.553986,345.308960 460.184387,328.429932 479.655304,311.369202 
	C485.647339,306.118835 491.326233,300.511047 497.330048,294.795227 
	C503.156372,289.908966 508.938873,285.451569 514.418640,280.648743 
	C527.778320,268.939545 540.997681,257.070312 554.896362,245.075043 
	C556.009644,244.244278 556.500061,243.603973 556.990540,242.963684 
z"/>
<path fill="#85A416" opacity="1.000000" stroke="none" 
	d="
M425.562012,376.882507 
	C427.192688,378.435211 428.822174,380.246796 430.410461,382.322998 
	C428.766479,380.772247 427.163666,378.956818 425.562012,376.882507 
z"/>
<path fill="#85A416" opacity="1.000000" stroke="none" 
	d="
M433.015137,385.971069 
	C434.136993,387.166870 435.286499,388.636383 436.375916,390.368225 
	C435.224792,389.168640 434.133759,387.706726 433.015137,385.971069 
z"/>
<path fill="#85A416" opacity="1.000000" stroke="none" 
	d="
M420.482208,370.661560 
	C421.509003,371.313477 422.503632,372.216309 423.470215,373.368958 
	C422.444824,372.716705 421.447449,371.814636 420.482208,370.661560 
z"/>
<path fill="#C3ED13" opacity="1.000000" stroke="none" 
	d="
M582.125244,370.546509 
	C579.447693,370.079071 576.852783,368.833069 574.117493,368.276337 
	C570.032654,367.444946 570.052917,364.287140 571.681458,362.380280 
	C576.210571,357.076965 575.903748,350.476868 576.725952,344.498260 
	C578.256348,333.369965 578.233154,322.033569 579.089722,310.801605 
	C579.236511,308.876190 580.540161,307.039001 581.685791,305.074463 
	C582.089783,326.684052 582.117432,348.380219 582.125244,370.546509 
z"/>
<path fill="#C3ED13" opacity="1.000000" stroke="none" 
	d="
M582.078247,402.540955 
	C576.369019,399.567047 577.999207,393.435974 577.275879,388.472839 
	C576.743408,384.819794 578.412048,380.812408 579.310974,377.012878 
	C579.488464,376.262665 580.628845,375.740265 581.713745,375.047729 
	C582.101990,384.012299 582.101685,393.041931 582.078247,402.540955 
z"/>
<path fill="#C3ED13" opacity="1.000000" stroke="none" 
	d="
M582.140564,274.554352 
	C577.031799,271.461914 576.582031,259.877716 581.712646,255.060974 
	C582.100586,261.351959 582.128479,267.717621 582.140564,274.554352 
z"/>
<path fill="#C3ED13" opacity="1.000000" stroke="none" 
	d="
M582.095337,446.544098 
	C581.140686,444.755493 579.472351,442.513977 579.419617,440.235077 
	C579.302490,435.177094 576.895996,429.680908 581.686768,425.073364 
	C582.080139,432.015778 582.097412,439.045013 582.095337,446.544098 
z"/>
<path fill="#C3ED13" opacity="1.000000" stroke="none" 
	d="
M582.085266,233.552765 
	C579.525391,232.325989 576.985840,230.639740 574.044678,228.910172 
	C575.749817,226.424271 577.856628,223.981720 579.963501,221.539169 
	C580.677551,221.824554 581.391602,222.109955 582.105652,222.395340 
	C582.105652,225.961334 582.105652,229.527313 582.085266,233.552765 
z"/>
<path fill="#C3ED13" opacity="1.000000" stroke="none" 
	d="
M567.563660,233.705048 
	C567.143799,234.378891 566.421875,235.184601 565.324951,236.017181 
	C565.720459,235.308319 566.491028,234.572617 567.563660,233.705048 
z"/>
<path fill="#C3ED13" opacity="1.000000" stroke="none" 
	d="
M571.676636,230.015030 
	C571.678040,230.431580 571.426331,231.048096 570.843994,231.792450 
	C570.816772,231.351852 571.120239,230.783417 571.676636,230.015030 
z"/>
<path fill="#C3ED13" opacity="1.000000" stroke="none" 
	d="
M564.606079,236.642105 
	C564.438049,236.980850 563.966980,237.434662 563.144775,237.904114 
	C563.296814,237.532227 563.799927,237.144699 564.606079,236.642105 
z"/>
<path fill="#C3EF27" opacity="1.000000" stroke="none" 
	d="
M549.992676,305.010406 
	C549.996277,350.723541 549.999939,396.436676 549.998047,442.630157 
	C549.648438,441.201508 549.006958,439.292969 549.003784,437.383423 
	C548.931274,393.562042 548.928284,349.740540 549.196045,305.457611 
	C549.650818,305.000885 549.821716,305.005646 549.992676,305.010406 
z"/>
<path fill="#C3ED13" opacity="1.000000" stroke="none" 
	d="
M524.400879,314.137390 
	C523.273865,312.667175 522.424744,311.026611 521.325745,308.903473 
	C523.089600,306.551331 524.472717,302.717865 529.560303,305.099335 
	C529.709961,306.047760 529.635071,306.602661 529.560242,307.157593 
	C530.049133,306.891937 530.537964,306.626282 531.026855,306.360657 
	C530.685364,305.906281 530.343933,305.451935 530.002441,304.997559 
	C531.202637,299.922150 533.693665,298.404572 537.229309,301.055908 
	C534.223083,304.940155 531.059753,308.459106 527.720032,312.253784 
	C526.588623,313.008667 525.633606,313.487885 524.400879,314.137390 
M525.488770,309.260376 
	C525.202148,309.060455 524.915588,308.860565 524.628967,308.660675 
	C524.813049,308.957825 524.997070,309.254944 525.488770,309.260376 
z"/>
<path fill="#C3ED13" opacity="1.000000" stroke="none" 
	d="
M549.995117,304.578552 
	C549.821716,305.005646 549.650818,305.000885 549.223145,304.988312 
	C548.927124,302.593842 548.887878,300.207245 548.864807,297.366119 
	C549.253174,299.323334 549.625366,301.735016 549.995117,304.578552 
z"/>
<path fill="#C3ED13" opacity="1.000000" stroke="none" 
	d="
M539.266663,300.898438 
	C539.752502,300.032623 540.528137,299.046692 541.671631,298.071686 
	C541.211853,298.981171 540.384155,299.879730 539.266663,300.898438 
z"/>
<path fill="#C3ED13" opacity="1.000000" stroke="none" 
	d="
M545.342590,295.937988 
	C545.305969,295.194092 545.605774,294.379272 545.905518,293.564484 
	C546.251343,293.992920 546.597046,294.421356 546.956421,295.120605 
	C546.539673,295.549957 546.109314,295.708496 545.342590,295.937988 
z"/>
<path fill="#C3ED13" opacity="1.000000" stroke="none" 
	d="
M557.810303,453.260437 
	C558.283508,453.560333 558.757446,454.179016 558.990112,454.995972 
	C558.436218,454.655884 558.123657,454.117584 557.810303,453.260437 
z"/>
<path fill="#C3ED13" opacity="1.000000" stroke="none" 
	d="
M542.349976,298.060181 
	C542.511963,297.728760 542.970520,297.398682 543.723999,297.041443 
	C543.561462,297.363373 543.104065,297.712433 542.349976,298.060181 
z"/>
<path fill="#C3ED13" opacity="1.000000" stroke="none" 
	d="
M544.232788,296.914246 
	C544.128784,296.708344 544.320862,296.450134 544.796082,296.124146 
	C544.921570,296.338226 544.738098,296.606750 544.232788,296.914246 
z"/>
<path fill="#C3ED13" opacity="1.000000" stroke="none" 
	d="
M553.242798,448.262695 
	C553.426880,448.184479 553.637756,448.365173 553.906799,448.783020 
	C553.710693,448.895691 553.478882,448.729523 553.242798,448.262695 
z"/>
<path fill="#C3ED13" opacity="1.000000" stroke="none" 
	d="
M560.036499,457.264038 
	C560.190857,457.255249 560.471313,457.483368 560.845947,457.973511 
	C560.680847,457.990692 560.421692,457.745819 560.036499,457.264038 
z"/>
<path fill="#C3ED13" opacity="1.000000" stroke="none" 
	d="
M561.193054,459.258728 
	C561.406189,459.185394 561.634094,459.408508 561.878113,459.930176 
	C561.659485,460.009979 561.430664,459.785461 561.193054,459.258728 
z"/>
<path fill="#C3ED13" opacity="1.000000" stroke="none" 
	d="
M562.908936,461.288025 
	C563.075684,461.229980 563.377258,461.404755 563.810852,461.808594 
	C563.643188,461.865356 563.343506,461.693085 562.908936,461.288025 
z"/>
<path fill="#C3ED13" opacity="1.000000" stroke="none" 
	d="
M502.391479,333.914978 
	C498.917297,329.117737 502.738159,325.606598 505.423492,320.026672 
	C506.180359,322.277191 506.542053,323.429199 506.955963,324.562164 
	C507.376984,325.714478 507.849457,326.847992 508.658325,328.018188 
	C506.911469,329.964111 504.805725,331.881592 502.391479,333.914978 
z"/>
<path fill="#C3ED13" opacity="1.000000" stroke="none" 
	d="
M496.293121,339.768616 
	C496.366608,336.693604 497.357086,334.048767 501.651855,334.058533 
	C500.218292,335.934906 498.404114,337.787781 496.293121,339.768616 
z"/>
<path fill="#C3ED13" opacity="1.000000" stroke="none" 
	d="
M509.328918,327.875946 
	C510.130096,326.693298 511.214264,325.368896 512.676270,324.055328 
	C511.906708,325.288849 510.759277,326.511505 509.328918,327.875946 
z"/>
<path fill="#C3ED13" opacity="1.000000" stroke="none" 
	d="
M474.327942,359.865540 
	C474.809357,358.723236 475.576782,357.428558 476.701813,356.109436 
	C476.244293,357.294342 475.429108,358.503754 474.327942,359.865540 
z"/>
<path fill="#C3ED13" opacity="1.000000" stroke="none" 
	d="
M465.263489,367.877136 
	C465.784332,367.028076 466.584106,366.036407 467.763855,365.056427 
	C467.276703,365.956940 466.409576,366.845734 465.263489,367.877136 
z"/>
<path fill="#C3ED13" opacity="1.000000" stroke="none" 
	d="
M521.279724,316.985413 
	C521.269775,316.823364 521.502686,316.539276 522.006409,316.169647 
	C522.025635,316.343872 521.774109,316.603668 521.279724,316.985413 
z"/>
<path fill="#C3ED13" opacity="1.000000" stroke="none" 
	d="
M519.221436,318.886414 
	C519.135864,318.685913 519.341492,318.434906 519.840027,318.135742 
	C519.929810,318.340668 519.723022,318.590149 519.221436,318.886414 
z"/>
<path fill="#C3ED13" opacity="1.000000" stroke="none" 
	d="
M473.224487,360.854492 
	C473.139832,360.656097 473.338226,360.420410 473.809265,360.134857 
	C473.928345,360.355164 473.736877,360.599274 473.224487,360.854492 
z"/>
<path fill="#C3ED13" opacity="1.000000" stroke="none" 
	d="
M513.286743,323.953613 
	C513.268921,323.781311 513.500427,323.510345 513.991699,323.149658 
	C514.013000,323.324921 513.774536,323.589905 513.286743,323.953613 
z"/>
<path fill="#C3ED13" opacity="1.000000" stroke="none" 
	d="
M477.338989,355.976379 
	C477.326752,355.770660 477.597321,355.505493 478.155518,355.173065 
	C478.169373,355.376190 477.895599,355.646545 477.338989,355.976379 
z"/>
<path fill="#C3ED13" opacity="1.000000" stroke="none" 
	d="
M484.295197,350.099762 
	C484.241638,349.939117 484.410309,349.630554 484.808899,349.186432 
	C484.864990,349.351227 484.691193,349.651520 484.295197,350.099762 
z"/>
<path fill="#C3ED13" opacity="1.000000" stroke="none" 
	d="
M485.309235,348.956665 
	C485.287994,348.770935 485.524658,348.502899 486.025757,348.153137 
	C486.049194,348.339050 485.808167,348.606720 485.309235,348.956665 
z"/>
<path fill="#C3ED13" opacity="1.000000" stroke="none" 
	d="
M488.208099,346.867554 
	C488.124115,346.680084 488.311462,346.439636 488.751953,346.123993 
	C488.854340,346.315552 488.679138,346.570831 488.208099,346.867554 
z"/>
<path fill="#C3ED13" opacity="1.000000" stroke="none" 
	d="
M489.221802,345.847046 
	C489.144562,345.653412 489.349152,345.413116 489.832764,345.121460 
	C489.918884,345.320557 489.716125,345.563995 489.221802,345.847046 
z"/>
<path fill="#C3ED13" opacity="1.000000" stroke="none" 
	d="
M494.285095,341.053772 
	C494.263367,340.896362 494.470978,340.584961 494.942291,340.158813 
	C494.975464,340.329315 494.744934,340.614563 494.285095,341.053772 
z"/>
<path fill="#C3ED13" opacity="1.000000" stroke="none" 
	d="
M556.716675,243.083710 
	C556.500061,243.603973 556.009644,244.244278 555.186890,244.919357 
	C555.383972,244.370682 555.913391,243.787216 556.716675,243.083710 
z"/>
<path fill="#BEEC0D" opacity="1.000000" stroke="none" 
	d="
M530.001221,304.998779 
	C530.343933,305.451935 530.685364,305.906281 531.026855,306.360657 
	C530.537964,306.626282 530.049133,306.891937 529.560242,307.157593 
	C529.635071,306.602661 529.709961,306.047760 529.890259,305.247620 
	C529.995728,305.002441 530.000000,305.000000 530.001221,304.998779 
z"/>
<path fill="#BEEC0D" opacity="1.000000" stroke="none" 
	d="
M525.334961,309.406250 
	C524.997070,309.254944 524.813049,308.957825 524.628967,308.660675 
	C524.915588,308.860565 525.202148,309.060455 525.334961,309.406250 
z"/>
</svg>